<?xml version="1.0" standalone="no"?>
<!DOCTYPE svg PUBLIC "-//W3C//DTD SVG 20010904//EN"
 "http://www.w3.org/TR/2001/REC-SVG-20010904/DTD/svg10.dtd">
<svg version="1.0" xmlns="http://www.w3.org/2000/svg"
 width="1180.000000pt" height="834.000000pt" viewBox="0 0 1180.000000 834.000000"
 preserveAspectRatio="xMidYMid meet">

<g transform="translate(0.000000,834.000000) scale(0.100000,-0.100000)"
fill="#000000" stroke="none">
<path d="M8475 5029 c-5 -14 0 -28 15 -44 20 -21 21 -30 15 -72 -4 -26 -7
-268 -6 -537 l1 -489 -133 7 c-275 14 -629 25 -830 25 -125 1 -246 7 -305 15
-53 8 -133 17 -177 20 -130 9 -1391 6 -1500 -4 -283 -25 -375 -29 -658 -34
-169 -3 -311 -7 -316 -10 -5 -3 -96 -6 -202 -7 -107 0 -266 -7 -354 -15 -417
-37 -631 -52 -638 -45 -18 18 -54 471 -59 736 l-2 90 -6 -85 -6 -85 -2 96 -2
96 88 36 c48 20 134 54 192 77 58 22 123 50 145 63 36 20 40 27 43 65 2 30 -1
44 -11 48 -16 6 -227 -78 -409 -162 -64 -30 -126 -54 -138 -54 -11 0 -28 -9
-38 -21 -18 -23 -192 -112 -507 -262 -110 -52 -249 -118 -310 -147 -125 -59
-353 -152 -503 -204 -56 -19 -166 -60 -244 -90 -253 -96 -552 -203 -649 -231
-52 -14 -151 -49 -221 -77 -71 -27 -167 -58 -215 -68 -49 -11 -133 -33 -188
-50 -55 -18 -120 -36 -144 -41 -54 -11 -54 -11 -45 -43 6 -24 10 -26 63 -26
31 0 83 5 116 10 66 12 377 51 440 56 112 8 290 35 296 45 4 7 8 8 10 1 3 -6
48 -7 134 -2 72 5 254 14 405 20 151 6 363 17 470 25 166 12 376 20 416 16 7
-1 15 -30 19 -71 6 -56 10 -70 24 -70 14 0 16 11 13 74 -3 70 -2 74 20 79 44
12 523 47 640 47 l85 0 6 -60 c6 -70 20 -92 56 -88 25 3 26 5 26 80 0 88 -13
78 120 97 209 31 485 47 1100 66 275 8 635 22 800 31 241 13 443 15 1025 11
399 -3 790 -10 870 -16 155 -11 575 -28 959 -38 l234 -6 -6 -103 c-3 -57 -3
-119 0 -139 5 -34 7 -35 48 -35 l43 0 4 130 c2 71 7 132 11 136 4 4 98 0 209
-9 112 -9 276 -22 365 -28 l161 -12 7 -56 c4 -31 12 -80 19 -110 10 -47 13
-51 25 -37 11 13 12 39 7 113 l-7 96 128 -7 c233 -12 575 -27 836 -35 143 -5
263 -13 267 -17 4 -5 10 -18 12 -29 2 -11 11 -21 21 -23 12 -3 17 3 17 22 0
25 2 26 68 26 37 -1 137 -7 222 -15 85 -8 232 -19 325 -25 281 -17 469 -31
493 -37 21 -5 22 -2 22 51 0 44 -4 57 -19 66 -71 37 -644 221 -891 285 -175
46 -165 42 -200 72 -18 15 -37 23 -46 19 -21 -8 -172 44 -464 159 -129 52
-305 119 -390 150 -85 32 -245 100 -355 153 -110 52 -272 124 -360 159 -259
102 -342 146 -496 260 -48 34 -89 63 -92 63 -3 0 -9 -9 -12 -21z m211 -236
c50 -29 167 -81 260 -116 93 -35 196 -77 228 -93 l59 -29 18 -90 c17 -85 50
-342 67 -537 l8 -88 -51 0 c-53 0 -455 25 -588 36 -43 4 -80 12 -83 18 -2 6
-6 214 -8 461 -3 248 -8 461 -12 474 -8 28 -12 30 102 -36z m-5452 -225 c3
-40 10 -170 16 -288 10 -209 26 -392 37 -437 5 -22 3 -23 -63 -23 -79 0 -289
-15 -487 -35 -76 -8 -144 -12 -151 -9 -23 9 -46 118 -46 216 0 89 -14 242 -24
277 -4 13 39 37 205 116 116 55 274 135 352 177 78 43 145 78 149 78 3 0 9
-33 12 -72z m6456 -219 c91 -33 219 -84 286 -114 66 -29 224 -90 350 -135 126
-45 238 -88 250 -95 17 -11 23 -30 33 -102 6 -49 11 -95 11 -102 0 -14 -468
-14 -645 0 -55 4 -206 13 -335 19 -129 7 -239 15 -243 20 -5 4 -19 128 -32
276 -14 148 -27 297 -30 332 l-7 63 99 -51 c54 -27 172 -77 263 -111z m-7216
-309 c9 -91 19 -188 22 -216 l6 -51 -48 -7 c-71 -10 -618 -44 -835 -52 l-186
-7 -6 33 c-4 18 -7 49 -7 70 l0 37 78 28 c458 165 753 282 907 362 l40 21 7
-26 c4 -15 14 -101 22 -192z m8358 -129 c229 -79 421 -156 400 -159 -13 -2
-111 4 -220 12 -108 9 -230 16 -271 16 l-73 0 6 31 c3 17 6 56 6 85 0 67 1 67
152 15z m-9477 -100 c-3 -6 -1 -29 4 -53 6 -23 9 -44 7 -45 -2 -2 -43 -8 -92
-13 -49 -6 -135 -15 -192 -21 -95 -11 -140 -8 -96 7 10 3 69 25 129 49 230 89
253 96 240 76z"/>
<path d="M5400 3594 c-167 -8 -718 -62 -955 -94 -38 -5 -135 -17 -215 -26
-314 -34 -630 -121 -896 -244 -146 -68 -514 -310 -626 -412 -115 -105 -305
-369 -335 -465 -15 -48 -18 -92 -17 -259 1 -129 6 -214 14 -238 6 -20 10 -38
8 -40 -2 -1 -50 2 -203 14 -15 1 -580 -18 -710 -24 -491 -23 -784 -48 -1085
-92 -159 -23 -165 -25 -165 -60 0 -24 5 -30 26 -32 15 -2 188 11 385 27 443
38 826 53 1359 55 373 1 413 3 438 19 17 11 46 17 84 17 32 0 69 3 82 7 20 5
22 10 17 42 -3 20 -12 41 -20 47 -26 19 -65 176 -68 272 -3 138 26 323 56 347
7 6 19 21 26 35 39 76 135 181 268 293 185 157 210 175 312 232 258 144 350
185 520 229 57 15 146 41 196 57 166 53 346 85 639 115 83 8 177 19 210 24 64
10 256 23 580 41 204 10 784 14 865 5 25 -3 205 -7 400 -11 587 -10 760 -25
1175 -106 203 -39 482 -101 634 -140 74 -20 355 -131 444 -176 27 -13 80 -44
118 -69 38 -24 72 -44 75 -44 34 0 360 -322 435 -430 100 -143 93 -118 99
-370 3 -124 10 -234 15 -244 8 -18 4 -19 -109 -13 -126 7 -146 4 -146 -22 0
-32 18 -43 106 -62 74 -16 167 -22 569 -34 264 -8 615 -24 780 -35 390 -27
623 -37 641 -27 8 5 14 4 14 -3 0 -6 34 -10 90 -10 l91 0 14 33 c20 46 1 57
-96 57 -48 0 -79 4 -81 11 -3 8 -76 14 -218 19 -118 5 -269 13 -335 19 -172
15 -513 30 -868 38 -276 6 -307 8 -301 22 20 49 23 79 13 140 -5 36 -12 100
-15 141 -3 41 -14 117 -24 168 -54 272 -357 604 -717 786 -115 58 -337 153
-430 184 -164 56 -823 183 -1163 226 -128 17 -504 38 -810 47 -366 10 -1081
18 -1190 13z"/>
<path d="M11457 2923 c-3 -5 -7 -116 -9 -248 l-3 -239 45 3 c84 6 80 -5 80
231 0 247 -3 260 -66 260 -24 0 -45 -3 -47 -7z"/>
<path d="M10606 2898 c-12 -38 -13 -61 -4 -105 6 -26 13 -93 17 -148 l6 -100
37 -3 c30 -3 38 1 43 19 10 29 -14 288 -28 319 -14 28 -64 41 -71 18z"/>
<path d="M687 2893 c-21 -33 -36 -267 -21 -307 4 -11 19 -16 45 -16 36 0 38 2
45 38 4 20 8 82 8 137 1 80 -3 107 -17 128 -16 25 -50 36 -60 20z"/>
<path d="M1005 2824 c-12 -13 -16 -34 -15 -88 1 -39 -2 -87 -5 -107 -7 -34 -5
-37 26 -48 51 -18 60 -2 62 116 2 87 -1 104 -17 122 -23 25 -30 26 -51 5z"/>
<path d="M1452 2828 c-35 -35 8 -418 47 -418 40 0 41 7 41 185 0 168 -7 221
-33 237 -18 11 -41 10 -55 -4z"/>
<path d="M11022 2778 c-20 -20 -14 -110 18 -280 17 -88 30 -170 30 -183 0 -17
9 -26 33 -34 29 -11 34 -9 50 10 10 13 16 32 13 43 -2 12 -8 71 -12 131 -7
110 -43 285 -65 311 -14 17 -51 18 -67 2z"/>
<path d="M297 2755 c-20 -19 -26 -52 -31 -180 -3 -55 -8 -130 -12 -166 -4 -41
-3 -73 4 -86 11 -19 97 -52 108 -40 16 15 36 191 37 327 l2 155 -46 3 c-32 2
-51 -2 -62 -13z"/>
<path d="M11700 2704 c-11 -29 -13 -166 -4 -266 6 -63 8 -67 35 -73 16 -4 38
-4 49 0 19 6 20 15 20 167 0 154 -1 161 -22 179 -33 27 -66 24 -78 -7z"/>
<path d="M1249 2713 c-6 -48 5 -301 14 -311 5 -7 24 -12 41 -10 31 3 31 3 42
85 6 50 7 86 1 92 -5 5 -4 17 2 30 9 17 8 29 -5 56 -8 19 -21 38 -27 43 -17
13 -67 24 -68 15z"/>
<path d="M10255 2660 c-8 -12 12 -230 26 -281 7 -30 15 -38 40 -43 51 -10 55
1 53 133 -1 119 -2 120 -34 160 -31 40 -71 54 -85 31z"/>
<path d="M1794 2549 c-3 -6 -9 -86 -12 -178 -4 -148 -3 -169 12 -184 22 -21
29 -21 54 1 18 14 24 39 37 167 l16 150 -31 27 c-31 29 -64 36 -76 17z"/>
<path d="M592 2478 c-5 -7 -15 -59 -21 -116 -11 -91 -10 -106 3 -128 20 -29
72 -58 81 -44 3 5 11 65 16 132 l11 122 -27 23 c-29 26 -48 29 -63 11z"/>
<path d="M808 2444 c-16 -36 -19 -56 -13 -88 5 -23 8 -69 9 -104 1 -67 11 -82
54 -82 28 0 29 1 42 139 13 141 4 181 -41 181 -26 0 -33 -6 -51 -46z"/>
<path d="M10797 2473 c-4 -3 -7 -75 -7 -159 0 -149 0 -152 23 -158 12 -3 34
-6 48 -6 l26 0 7 141 c9 164 1 189 -58 189 -18 0 -36 -3 -39 -7z"/>
<path d="M6147 2054 c-5 -5 -311 -35 -487 -49 -107 -8 -220 -19 -250 -24 -66
-11 -159 -20 -295 -27 -55 -3 -106 -7 -113 -9 -31 -11 -492 -6 -562 5 -55 9
-116 10 -230 4 l-155 -9 -3 -37 c-3 -33 0 -37 30 -47 49 -16 837 -18 1013 -2
77 7 239 23 360 37 121 13 285 31 365 39 129 14 270 34 369 53 38 8 57 31 48
56 -5 13 -17 16 -47 14 -22 -1 -42 -3 -43 -4z"/>
<path d="M7849 1826 c-5 -5 -114 -13 -364 -26 -110 -6 -270 -17 -355 -25 -85
-8 -234 -19 -330 -26 -200 -13 -314 -27 -520 -64 -207 -37 -192 -33 -188 -58
3 -19 10 -22 58 -25 30 -2 134 6 230 17 443 52 904 83 1740 117 161 7 190 15
190 54 0 37 -18 40 -240 40 -119 0 -219 -2 -221 -4z"/>
<path d="M3920 1554 c-110 -4 -460 -34 -495 -43 -46 -11 -41 -43 10 -54 80
-18 1108 25 1168 48 24 10 21 24 -5 34 -23 8 -540 19 -678 15z"/>
<path d="M8350 1505 c-8 -2 -41 -7 -72 -10 -55 -6 -57 -7 -46 -30 16 -35 50
-45 148 -45 50 0 192 -5 317 -11 236 -11 577 1 597 21 24 24 -19 33 -206 41
-106 4 -240 12 -298 18 -118 11 -417 22 -440 16z"/>
<path d="M7221 1400 c-112 -5 -127 -14 -92 -49 20 -20 31 -21 284 -20 144 1
296 4 337 8 68 5 75 8 78 29 2 12 -3 24 -10 26 -21 7 -481 12 -597 6z"/>
<path d="M9878 1334 c-3 -3 -47 -7 -98 -10 -92 -4 -120 -14 -120 -40 0 -22 67
-34 215 -39 77 -3 282 -10 455 -16 287 -11 549 -7 658 7 34 5 42 10 42 28 0
47 4 47 -376 51 -197 3 -404 9 -459 15 -109 10 -308 13 -317 4z"/>
<path d="M3425 1313 c-195 -6 -600 -42 -622 -56 -4 -3 -78 -8 -163 -11 -361
-14 -618 -30 -847 -53 -165 -17 -173 -18 -173 -39 0 -38 23 -47 110 -42 45 3
83 1 86 -4 6 -10 22 -9 324 17 91 8 254 19 364 25 109 6 201 12 205 14 17 11
453 38 816 51 220 8 424 19 454 25 68 12 91 39 53 59 -17 9 -442 19 -607 14z"/>
<path d="M5795 1230 l-110 -5 -3 -27 c-3 -24 0 -27 40 -32 127 -17 596 -25
903 -15 181 5 340 12 353 15 15 3 22 11 20 22 -3 18 -9 19 -213 41 -100 11
-769 12 -990 1z"/>
<path d="M8433 1109 c-46 -24 -39 -63 15 -80 121 -36 1492 -32 1492 5 -1 47
-65 62 -230 55 -220 -11 -477 -10 -595 2 -60 6 -204 12 -320 13 -115 2 -239 6
-275 9 -41 5 -73 3 -87 -4z"/>
</g>
</svg>
